<?xml version="1.0" encoding="UTF-8" standalone="no"?>
<!-- Created with Inkscape (http://www.inkscape.org/) -->

<svg
   width="164.04128mm"
   height="174.25966mm"
   viewBox="0 0 164.04128 174.25966"
   version="1.1"
   id="svg5"
   xml:space="preserve"
   inkscape:export-filename="bitmap.svg"
   inkscape:export-xdpi="96"
   inkscape:export-ydpi="96"
   xmlns:inkscape="http://www.inkscape.org/namespaces/inkscape"
   xmlns:sodipodi="http://sodipodi.sourceforge.net/DTD/sodipodi-0.dtd"
   xmlns="http://www.w3.org/2000/svg"
   xmlns:svg="http://www.w3.org/2000/svg"><sodipodi:namedview
     id="namedview7"
     pagecolor="#ffffff"
     bordercolor="#000000"
     borderopacity="0.25"
     inkscape:showpageshadow="2"
     inkscape:pageopacity="0.0"
     inkscape:pagecheckerboard="0"
     inkscape:deskcolor="#d1d1d1"
     inkscape:document-units="mm"
     showgrid="false" /><defs
     id="defs2" /><g
     inkscape:label="Layer 1"
     inkscape:groupmode="layer"
     id="layer1"
     transform="translate(-28.372153,-47.320521)"><path
       style="fill:#ffffff;stroke-width:0.352778"
       d="m 134.91105,220.31623 c -2.52213,-1.19271 -40.741543,-18.83889 -46.146333,-21.30609 -2.85792,-1.30461 -3.24256,-1.76161 -3.24256,-3.85251 0,-0.78887 -0.0873,-1.43431 -0.19391,-1.43431 -0.10665,0 -0.68858,0.25581 -1.29318,0.56846 -1.79145,0.92639 -3.53043,0.44872 -11.03652,-3.03162 -3.88056,-1.79928 -15.151813,-6.99121 -25.047233,-11.53762 -9.89541,-4.54641 -18.34885,-8.49853 -18.78541,-8.78251 l -0.79375,-0.51631 0.005,-29.00784 c 0.003,-15.95431 0.13292,-29.20875 0.28879,-29.4543 0.15586,-0.24555 6.22562,-3.15768 13.48835,-6.4714 7.26272,-3.31372 13.48277,-6.272744 13.82232,-6.575594 0.56857,-0.50711 0.61736,-1.67012 0.61736,-14.716033 0,-10.785492 0.10521,-14.304812 0.44097,-14.749712 0.56943,-0.75455 51.798286,-22.12832 53.037346,-22.12832 1.24712,0 52.40653,21.36545 52.97239,22.1226 0.34392,0.46018 0.44097,6.61746 0.44097,27.977795 v 27.387744 l 0.79375,0.72448 c 0.43656,0.39845 6.6675,3.38077 13.84653,6.62735 7.17902,3.24659 13.33059,6.14786 13.67013,6.44726 0.57848,0.51008 0.61737,2.35863 0.61737,29.35005 0,22.50004 -0.0965,28.93263 -0.44098,29.38563 -0.24253,0.31899 -10.60097,5.25099 -23.01875,10.96001 -12.41777,5.70902 -23.98904,11.03463 -25.71392,11.83469 -1.90072,0.88161 -3.63784,1.44965 -4.40972,1.44197 -0.70288,-0.007 -2.45919,-0.57334 -3.91941,-1.26387 z m 1.05833,-32.00629 c 0,-21.85133 -0.041,-23.44059 -0.61736,-23.94056 -0.4889,-0.42408 -37.707863,-17.62424 -42.333343,-19.56368 l -1.14652,-0.48074 v 23.97281 c 0,18.79691 0.0952,24.03197 0.44097,24.24682 0.66916,0.41583 43.087963,19.14472 43.391673,19.15844 0.14552,0.007 0.26458,-10.52031 0.26458,-23.39309 z m -8.64306,-11.6505 -2.11666,-1.17138 -0.17639,-3.49418 c -0.097,-1.92179 -0.30327,-3.69009 -0.45834,-3.92955 -0.15507,-0.23947 -0.76402,-0.56031 -1.35322,-0.71298 l -1.07127,-0.2776 2.63352,-1.66827 c 1.44843,-0.91755 2.71841,-1.66827 2.82216,-1.66827 0.10376,0 0.7785,1.07156 1.49943,2.38125 0.72093,1.30969 1.78632,3.22904 2.36754,4.26522 l 1.05677,1.88396 -1.08494,-0.56105 c -0.59672,-0.30857 -1.24583,-0.56105 -1.44247,-0.56105 -0.20925,0 -0.39939,1.38625 -0.45849,3.34265 l -0.10097,3.34264 z M 99.403067,163.55387 c -0.99974,-0.45711 -1.94572,-1.03824 -2.10219,-1.29141 -0.15647,-0.25318 -0.24809,-1.71473 -0.20359,-3.24791 0.0928,-3.19668 -0.39982,-4.3349 -1.95338,-4.51358 -0.91474,-0.10521 -0.81443,-0.23038 1.57439,-1.96445 1.40326,-1.01865 2.69524,-1.85209 2.87107,-1.85209 0.28068,0 4.630013,7.10765 4.630013,7.56633 0,0.0975 -0.40721,0.0225 -0.90491,-0.16673 -0.4977,-0.18922 -1.05332,-0.34404 -1.23472,-0.34404 -0.18142,0 -0.32982,1.50789 -0.32982,3.35139 0,1.84326 -0.11906,3.33838 -0.26458,3.32248 -0.14552,-0.0159 -1.08255,-0.40289 -2.082283,-0.85999 z m 62.731173,38.77971 c 11.70607,-5.15979 21.56157,-9.62939 21.90111,-9.93246 0.5764,-0.51447 0.61736,-2.12747 0.61736,-24.30886 0,-13.06681 -0.0785,-23.75783 -0.17437,-23.75783 -0.50536,0 -14.84948,6.78093 -15.40216,7.2811 -0.58116,0.52594 -0.65124,1.19343 -0.65124,6.20233 0,3.34185 -0.15404,5.90078 -0.38071,6.32432 -0.2898,0.5415 -5.79873,3.47559 -6.52563,3.47559 -0.0733,0 -0.17657,-2.8526 -0.22945,-6.33912 l -0.0962,-6.33911 -10.1799,4.65099 c -7.46919,3.41252 -10.2438,4.84218 -10.41988,5.36897 -0.2315,0.69258 -0.0914,46.75549 0.14222,46.75549 0.0633,0 9.69275,-4.22164 21.39881,-9.38141 z M 80.230487,162.1929 c 0,-18.58178 -0.0931,-23.49381 -0.45105,-23.79086 -0.41727,-0.34631 -43.173923,-20.17317 -43.503463,-20.17317 -0.0812,0 -0.10682,10.83218 -0.057,24.0715 l 0.0906,24.07149 21.69583,9.60069 c 11.932713,5.28038 21.814903,9.60884 21.960423,9.61879 0.14552,0.01 0.26458,-10.51934 0.26458,-23.39844 z m -8.73125,-11.74454 -2.20486,-1.23938 V 146.095 c 0,-3.7144 -0.11835,-4.09067 -1.51358,-4.81217 l -1.0753,-0.55606 2.44097,-1.5436 c 1.34253,-0.84897 2.5486,-1.54538 2.68015,-1.54755 0.32005,-0.005 4.60272,7.79533 4.39424,8.00382 -0.0898,0.0898 -0.48393,-0.008 -0.87585,-0.21809 -1.31127,-0.70177 -1.43651,-0.46247 -1.53994,2.94252 l -0.10097,3.32388 z M 43.920194,137.46704 c -2.68998,-1.13834 -2.92842,-1.57279 -2.64577,-4.82057 0.21282,-2.44536 0.16578,-2.76065 -0.51315,-3.43958 -0.4111,-0.41111 -0.98558,-0.74746 -1.27662,-0.74746 -0.97594,0 -0.54429,-0.53612 1.91104,-2.37356 1.79321,-1.34193 2.52807,-1.71366 2.77156,-1.40197 0.18225,0.23327 1.01554,1.61477 1.85176,3.06998 0.83623,1.4552 1.75834,3.01512 2.04914,3.46648 0.52563,0.81585 0.52124,0.81925 -0.75097,0.58058 l -1.27971,-0.24007 -0.10141,3.35817 -0.10141,3.35817 z m 41.884183,47.71906 c 0.31991,-0.31991 0.42333,-5.62608 0.42333,-21.71903 0,-20.69262 -0.093,-22.66042 -1.07074,-22.66042 -0.21507,0 -0.34037,8.24692 -0.34037,22.40139 0,12.32077 0.127,22.40139 0.28222,22.40139 0.15523,0 0.47273,-0.1905 0.70556,-0.42333 z m 62.672433,-29.08651 c 5.36408,-2.45445 9.62587,-4.57603 9.47064,-4.71464 -0.553,-0.49377 -22.06513,-10.5783 -22.56544,-10.5783 -0.80523,0 -20.21723,8.96236 -20.11917,9.28886 0.11504,0.38304 22.11584,10.43568 22.87756,10.45325 0.32094,0.007 4.97233,-1.99473 10.33641,-4.44917 z m 25.63334,-11.7297 c 3.74812,-1.72675 6.86458,-3.28902 6.92548,-3.47172 0.0609,-0.1827 -5.05103,-2.68485 -11.35985,-5.56033 l -11.47058,-5.22815 -6.94732,3.15546 c -3.82102,1.7355 -7.00056,3.31518 -7.06563,3.51039 -0.14235,0.42704 21.26187,10.69281 22.345,10.71698 0.41698,0.009 3.82479,-1.39588 7.5729,-3.12263 z m -66.1866,-23.65892 c 0,-20.23804 -0.0691,-23.339734 -0.53037,-23.801064 -0.40531,-0.40538 -27.050083,-12.786913 -41.891163,-19.466363 l -1.85209,-0.83356 v 23.740637 c 0,18.45072 0.0983,23.86871 0.44098,24.31548 0.45047,0.58724 42.342703,19.2511 43.303473,19.2926 0.46525,0.0201 0.52917,-2.78779 0.52917,-23.24773 z M 99.139347,109.0567 c -0.95076,-0.5404 -1.88424,-1.26058 -2.07442,-1.6004 -0.19711,-0.35222 -0.24985,-1.64985 -0.12267,-3.01825 0.26387,-2.83912 -0.18074,-4.1074 -1.65758,-4.728364 l -1.01429,-0.42648 1.88769,-1.16085 c 1.03823,-0.63846 2.22727,-1.38303 2.64231,-1.6546 0.72663,-0.475453 0.83641,-0.346013 2.959793,3.48993 1.21285,2.191024 2.27674,4.110894 2.3642,4.266384 0.0875,0.15548 -0.41101,0.0445 -1.10771,-0.24659 l -1.26674,-0.52927 v 1.69665 c 0,2.15133 -0.3818,4.98181 -0.66531,4.93225 -0.11915,-0.0208 -0.99452,-0.48002 -1.945273,-1.02041 z m -28.10602,-13.317417 -1.91534,-0.97014 -0.17639,-3.52437 c -0.17136,-3.42392 -0.20404,-3.53758 -1.14653,-3.988 -0.53357,-0.255 -0.97014,-0.5831 -0.97014,-0.72912 0,-0.26444 4.34485,-3.57657 4.69175,-3.57657 0.20689,0 4.48048,7.23105 4.48048,7.58114 0,0.20342 -0.76652,0.0389 -2.02848,-0.43535 -0.33367,-0.1254 -0.44097,0.65891 -0.44097,3.22341 0,1.86403 -0.13028,3.389143 -0.28952,3.389143 -0.15923,0 -1.15142,-0.43657 -2.20486,-0.970143 z m 61.664113,39.582877 c 10.82186,-4.76272 20.54923,-9.08866 21.61639,-9.6132 l 1.94027,-0.9537 0.0906,-24.05875 0.0906,-24.058757 -1.85453,0.8329 c -6.96556,3.12837 -13.39603,6.16286 -13.8391,6.53057 -0.41886,0.34762 -0.54221,1.67425 -0.61924,6.65934 l -0.0962,6.225253 -2.99862,1.48555 c -1.64923,0.81705 -3.19704,1.49174 -3.43958,1.49931 -0.3365,0.0105 -0.44097,-1.44883 -0.44097,-6.159863 0,-3.39549 -0.12569,-6.17362 -0.2793,-6.17362 -0.41974,0 -19.56119,8.803553 -20.08294,9.236563 -0.35872,0.2977 -0.45165,5.193214 -0.45165,23.791364 0,14.97878 0.12397,23.41653 0.34403,23.41653 0.18921,0 9.19827,-3.89677 20.02014,-8.65949 z M 58.005484,114.70109 c 0,-4.65666 -0.11906,-8.46785 -0.26458,-8.46931 -0.46204,-0.005 -18.43264,8.26693 -18.43264,8.48421 0,0.25062 17.62712,8.38427 18.25625,8.42396 0.3413,0.0215 0.44097,-1.88587 0.44097,-8.43886 z M 120.42589,88.507333 c 5.23979,-2.37684 9.53125,-4.41545 9.53658,-4.53025 0.0208,-0.44714 -41.347423,-18.664892 -42.383533,-18.664892 -1.63393,0 -21.03154,7.79811 -20.38909,8.19669 1.91088,1.18552 41.983903,19.268782 42.750593,19.291532 0.52721,0.0156 5.24566,-1.91624 10.48545,-4.29308 z m 25.29545,-11.60681 c 8.27862,-3.779022 7.98371,-3.545592 5.68919,-4.503002 -1.02256,-0.42667 -10.72793,-4.43988 -21.56749,-8.91824 l -19.70829,-8.14247 -6.83827,2.72837 c -3.761053,1.5006 -6.909833,2.84415 -6.997283,2.98566 -0.25535,0.41315 40.768103,18.672952 42.013813,18.700612 0.67838,0.0151 3.55457,-1.09177 7.40833,-2.85093 z"
       id="path179" /></g></svg>
